<svg xmlns="http://www.w3.org/2000/svg" xmlns:xlink="http://www.w3.org/1999/xlink" version="1.1" x="0px" y="0px" viewBox="0 0 66 82.5" enable-background="new 0 0 66 66" xml:space="preserve"><g><g><path d="M19.4,46.4c2.3,2.3,6.1,2.4,8.6,0c2.4-2.4,2.4-6.2,0-8.6c-2.4-2.4-6.2-2.4-8.6,0C17.1,40.2,17.1,44.1,19.4,46.4z"/></g><g><path d="M31.6,43.9c-0.3,1.5-1.1,2.9-2.2,4c-3.1,3.1-8.2,3.2-11.4,0c-3.1-3.1-3.2-8.2,0-11.4c1-1,2.2-1.7,3.6-2.1l9.1-9.1    c-1.6-1-3.3-1.5-4.8-1.5c-3.1,0-5.6,2.1-6.9,4.9c-1.2,4.5-6.1,4.9-6.3,4.9l-0.1,0C8,34.5,4.4,37,2.6,40.7c-1.7,3.4-1.7,7.5-0.1,11    c5.3,11.2,15.2,14.8,21,13c5.2-1.7,8.5-6.6,8.8-13.2c0.1-2.6,3.1-3.6,4.4-4c2-0.5,4.4-2.6,4.9-5.4c0.5-2.5-0.4-5-1.3-6.8    L31.6,43.9z M15.9,56.4c-0.4,0.4-1,0.4-1.4,0l-5-5c-0.4-0.4-0.4-1,0-1.4c0.4-0.4,1-0.4,1.4,0l5,5C16.3,55.3,16.3,56,15.9,56.4z     M19.3,53c-0.4,0.4-1,0.4-1.4,0l-5-5c-0.4-0.4-0.4-1,0-1.4c0.4-0.4,1-0.4,1.4,0l5,5C19.7,52,19.7,52.6,19.3,53z"/></g><g><path d="M62.7,12.7l1-1c1.4-1.4,1.5-3.8,0-5.2L59.3,2c-1.4-1.4-3.8-1.5-5.2,0l-1,1l-1.6-1.6c-0.4-0.4-1-0.4-1.4,0    c-0.4,0.4-0.4,1,0,1.4l1.6,1.6l-2,2L48,4.9c-0.4-0.4-1-0.4-1.4,0c-0.4,0.4-0.4,1,0,1.4l1.6,1.6l-1.3,1.3c-1,1-1.3,2.4-0.9,3.7    C25.6,33.2,28.9,29.9,24.7,34.2c3.6,0.4,6.5,3.2,7,6.8c7.3-7.3,13.8-13.8,21.2-21.2c0.3,0.1,0.7,0.1,1,0.1c1,0,1.9-0.4,2.6-1.1    l1.3-1.3l1.6,1.6c0.4,0.4,1,0.4,1.4,0c0.4-0.4,0.4-1,0-1.4l-1.6-1.6l2-2l1.6,1.6c0.4,0.4,1,0.4,1.4,0c0.4-0.4,0.4-1,0-1.4    L62.7,12.7z M53,11.3c-0.4,0.4-1,0.4-1.4,0c-0.4-0.4-0.4-1,0-1.4l3.7-3.7c0.4-0.4,1-0.4,1.4,0c0.4,0.4,0.4,1,0,1.4L53,11.3z     M59.5,10.4l-3.7,3.7c-0.4,0.4-1,0.4-1.4,0c-0.4-0.4-0.4-1,0-1.4L58.1,9c0.4-0.4,1-0.4,1.4,0C59.9,9.4,59.9,10,59.5,10.4z"/></g></g><text x="0" y="81" fill="#000000" font-size="5px" font-weight="bold" font-family="'Helvetica Neue', Helvetica, Arial-Unicode, Arial, Sans-serif">Created by ProSymbols</text><text x="0" y="86" fill="#000000" font-size="5px" font-weight="bold" font-family="'Helvetica Neue', Helvetica, Arial-Unicode, Arial, Sans-serif">from the Noun Project</text></svg>