<svg xmlns="http://www.w3.org/2000/svg" xmlns:xlink="http://www.w3.org/1999/xlink" version="1.1" x="0px" y="0px" viewBox="0 0 100 125" enable-background="new 0 0 100 100" xml:space="preserve"><g display="none"><rect x="-769.245" y="-994.243" display="inline" fill="#000000" width="1329.133" height="1263.126"/></g><g><circle fill="none" cx="10.563" cy="12.993" r="2.304"/><circle fill="none" cx="36.741" cy="58.598" r="2.304"/><path d="M25.394,45.489c0.057-0.323,0.097-0.662,0.121-1.008l0.02-0.292l0.084,0.02l3.063-17.446l0.128-0.052l12.813-5.22   c1.251-0.394,1.627-1.471,1.574-2.275s-0.564-1.822-1.835-2.046l-11.28-1.98c-1.561-0.272-3.134,0.076-4.43,0.985   c-1.297,0.909-2.162,2.269-2.436,3.828l-2.715,15.459l-0.298-0.146c-0.813-0.396-1.663-0.674-2.522-0.825   c-0.553-0.097-1.104-0.144-1.646-0.144c-4.523,0-8.542,3.251-9.352,7.856c-0.905,5.159,2.555,10.093,7.713,10.998   C19.553,54.106,24.489,50.647,25.394,45.489z"/><path d="M89.092,67.577l-4.193-27.915l-35.63-0.179l1.486,9.905l0.124-0.001l2.788,18.558l-0.33-0.043   c-0.427-0.057-0.854-0.085-1.278-0.085c-0.467,0-0.93,0.034-1.385,0.103c-5.197,0.781-8.789,5.645-8.009,10.841   s5.651,8.782,10.84,8.009c5.196-0.781,8.79-5.645,8.01-10.841c-0.049-0.322-0.118-0.658-0.207-0.998l-0.074-0.286l0.086-0.008   l-3.801-25.311l22.931-0.212l1.6,10.652l-0.354-0.077c-1.146-0.25-2.304-0.291-3.443-0.121c-5.197,0.781-8.789,5.645-8.009,10.841   c0.78,5.197,5.653,8.786,10.841,8.009C86.28,77.637,89.873,72.773,89.092,67.577z"/><path d="M31.937,58.598c0,2.648,2.155,4.804,4.804,4.804c2.649,0,4.805-2.155,4.805-4.804c0-2.649-2.155-4.805-4.805-4.805   C34.092,53.793,31.937,55.948,31.937,58.598z M39.045,58.598c0,1.271-1.034,2.304-2.305,2.304s-2.304-1.033-2.304-2.304   s1.033-2.305,2.304-2.305S39.045,57.327,39.045,58.598z"/><path d="M10.563,17.797c2.649,0,4.805-2.155,4.805-4.804c0-2.649-2.155-4.805-4.805-4.805c-2.648,0-4.804,2.155-4.804,4.805   C5.759,15.642,7.915,17.797,10.563,17.797z M10.563,10.688c1.271,0,2.305,1.034,2.305,2.305s-1.034,2.304-2.305,2.304   s-2.304-1.033-2.304-2.304S9.292,10.688,10.563,10.688z"/><path d="M33.732,92.946c-0.53,0.021-0.944,0.471-0.923,1.002c0.021,0.518,0.443,0.924,0.962,0.924   c1.038-0.041,1.963-0.469,2.643-1.205c0.681-0.735,1.032-1.69,0.992-2.688c-0.04-1-0.468-1.925-1.203-2.604   c-0.737-0.68-1.718-1.024-2.693-0.99c-1.001,0.04-1.926,0.467-2.604,1.202c-0.677,0.736-1.027,1.693-0.987,2.695   c0.021,0.523,0.443,0.924,0.97,0.924c0.011,0,0.022-0.001,0.033-0.001c0.528-0.021,0.943-0.471,0.922-1.002   c-0.021-0.486,0.15-0.952,0.48-1.31c0.328-0.357,0.776-0.564,1.263-0.584c0.996-0.056,1.854,0.746,1.895,1.748   c0.02,0.485-0.151,0.948-0.481,1.306S34.219,92.927,33.732,92.946z"/><path d="M90.818,84.03c0-0.669-0.545-1.213-1.214-1.213s-1.213,0.544-1.213,1.213v2.219c0,0.669,0.544,1.213,1.213,1.213   s1.214-0.544,1.214-1.213V84.03z"/><path d="M89.604,94.402c0.669,0,1.214-0.545,1.214-1.214V90.97c0-0.669-0.545-1.213-1.214-1.213s-1.213,0.544-1.213,1.213v2.219   C88.391,93.857,88.935,94.402,89.604,94.402z"/><path d="M94.183,87.396h-2.218c-0.669,0-1.214,0.544-1.214,1.213s0.545,1.214,1.214,1.214h2.218c0.669,0,1.214-0.545,1.214-1.214   S94.852,87.396,94.183,87.396z"/><path d="M85.026,89.823h2.218c0.669,0,1.214-0.545,1.214-1.214s-0.545-1.213-1.214-1.213h-2.218c-0.669,0-1.214,0.544-1.214,1.213   S84.357,89.823,85.026,89.823z"/><path d="M13.15,57.99c-0.236-0.236-0.548-0.354-0.858-0.354s-0.622,0.118-0.858,0.354l-1.568,1.568   c-0.473,0.473-0.473,1.243,0,1.716c0.455,0.456,1.258,0.458,1.716,0l1.569-1.568C13.623,59.233,13.623,58.463,13.15,57.99z"/><path d="M6.673,66.182l1.569-1.568c0.473-0.474,0.473-1.243,0-1.716c-0.236-0.236-0.548-0.354-0.858-0.354   s-0.622,0.118-0.858,0.354l-1.568,1.568c-0.473,0.473-0.473,1.243,0,1.716C5.414,66.637,6.215,66.639,6.673,66.182z"/><path d="M11.581,62.897c-0.217-0.217-0.529-0.342-0.857-0.342s-0.642,0.125-0.858,0.342c-0.473,0.473-0.473,1.243,0,1.716   l1.568,1.568c0.457,0.457,1.26,0.457,1.717,0c0.473-0.473,0.473-1.243,0-1.716L11.581,62.897z"/><path d="M4.958,59.706l1.568,1.568c0.457,0.457,1.26,0.457,1.717,0c0.473-0.473,0.473-1.243,0-1.716L6.674,57.99   c-0.236-0.236-0.548-0.354-0.858-0.354s-0.622,0.118-0.858,0.354C4.485,58.463,4.485,59.233,4.958,59.706z"/><path d="M78.417,25.487l1.568-1.568c0.473-0.473,0.473-1.243,0-1.716c-0.229-0.229-0.543-0.343-0.857-0.343   s-0.63,0.114-0.858,0.343l-1.568,1.568c-0.229,0.229-0.356,0.535-0.356,0.858s0.127,0.628,0.356,0.857   C77.158,25.943,77.959,25.944,78.417,25.487z"/><path d="M73.363,27.109l-1.568,1.569c-0.229,0.229-0.356,0.535-0.356,0.858s0.127,0.628,0.356,0.857   c0.458,0.458,1.26,0.457,1.716,0l1.568-1.568c0.229-0.229,0.355-0.533,0.355-0.858s-0.126-0.63-0.355-0.858   C74.607,26.638,73.836,26.636,73.363,27.109z"/><path d="M76.702,28.826l1.568,1.568c0.456,0.455,1.258,0.457,1.716,0c0.473-0.473,0.473-1.243,0-1.716l-1.568-1.568   c-0.229-0.229-0.543-0.343-0.857-0.343s-0.63,0.114-0.858,0.343c-0.229,0.229-0.356,0.535-0.356,0.858S76.472,28.597,76.702,28.826   z"/><path d="M75.079,23.771l-1.568-1.568c-0.236-0.236-0.547-0.354-0.857-0.354c-0.312,0-0.622,0.118-0.858,0.354   c-0.473,0.473-0.473,1.243,0,1.716l1.568,1.568c0.456,0.456,1.258,0.457,1.716,0c0.229-0.229,0.356-0.534,0.356-0.857   S75.308,24.001,75.079,23.771z"/><path d="M92.146,18.629c-1.512-1.513-3.275-1.303-4.566-1.153c-1.316,0.156-1.908,0.161-2.507-0.437   c-0.627-0.627-0.581-1.292-0.438-2.51c0.15-1.29,0.356-3.056-1.155-4.566c-1.508-1.51-3.271-1.307-4.561-1.155   c-1.229,0.14-1.893,0.186-2.516-0.438c-0.473-0.473-1.295-0.473-1.768,0c-0.236,0.236-0.366,0.55-0.366,0.884   s0.13,0.647,0.366,0.884c1.148,1.148,2.409,1.275,3.267,1.253c0.46-0.007,0.897-0.051,1.301-0.098   c1.216-0.144,1.881-0.188,2.509,0.438c0.627,0.627,0.581,1.291,0.438,2.509c-0.044,0.381-0.092,0.827-0.098,1.3   c-0.013,0.853,0.103,2.117,1.253,3.268c1.149,1.15,2.416,1.27,3.266,1.252c0.475-0.007,0.92-0.055,1.301-0.099   c0.436-0.052,0.8-0.091,1.117-0.091c0.569,0,0.986,0.125,1.39,0.527c0.624,0.625,0.578,1.289,0.436,2.505   c-0.048,0.404-0.093,0.842-0.1,1.301c-0.014,0.851,0.102,2.115,1.25,3.264c0.473,0.473,1.295,0.473,1.768,0   c0.236-0.236,0.366-0.55,0.366-0.884s-0.13-0.647-0.366-0.884c-0.624-0.625-0.578-1.289-0.436-2.505   C93.449,21.904,93.657,20.139,92.146,18.629z"/><path d="M59.355,10.041c0.349-0.162,0.755-0.354,1.16-0.597c0.732-0.435,1.749-1.195,2.126-2.774   c0.077-0.325,0.024-0.66-0.15-0.944c-0.175-0.285-0.45-0.484-0.775-0.562c-0.099-0.024-0.197-0.036-0.296-0.036   c-0.226,0-0.447,0.063-0.645,0.184c-0.287,0.176-0.488,0.452-0.565,0.778c-0.204,0.858-0.794,1.167-1.905,1.683   c-1.18,0.547-2.791,1.294-3.286,3.37c-0.496,2.079,0.604,3.475,1.409,4.494c0.76,0.962,1.146,1.504,0.94,2.365   c-0.205,0.861-0.795,1.171-1.907,1.688c-1.18,0.549-2.791,1.299-3.287,3.376c-0.496,2.079,0.605,3.476,1.409,4.494   c0.759,0.964,1.145,1.506,0.939,2.367c-0.16,0.671,0.255,1.347,0.925,1.507c0.095,0.022,0.192,0.034,0.292,0.034   c0.581,0,1.08-0.395,1.215-0.959c0.378-1.581-0.187-2.721-0.644-3.44c-0.245-0.387-0.513-0.736-0.765-1.057   c-0.76-0.962-1.146-1.505-0.94-2.365c0.206-0.863,0.796-1.173,1.908-1.688c0.371-0.173,0.769-0.365,1.159-0.597   c0.732-0.437,1.75-1.199,2.127-2.778c0.378-1.581-0.187-2.72-0.644-3.439c-0.246-0.387-0.514-0.735-0.766-1.056   c-0.76-0.961-1.146-1.503-0.94-2.364C57.654,10.865,58.244,10.557,59.355,10.041z"/><path d="M10.064,92.331c1.299,0.142,3.062,0.329,4.553-1.19c1.497-1.525,1.274-3.289,1.112-4.577   c-0.154-1.216-0.206-1.88,0.414-2.51c0.623-0.637,1.29-0.593,2.506-0.463c1.29,0.141,3.057,0.331,4.557-1.194   c1.498-1.526,1.275-3.29,1.113-4.578c-0.154-1.216-0.205-1.88,0.416-2.512c0.482-0.492,0.476-1.286-0.016-1.769   s-1.284-0.475-1.769,0.016c-1.139,1.16-1.243,2.427-1.223,3.278c0.011,0.455,0.06,0.894,0.11,1.3   c0.153,1.217,0.204,1.881-0.416,2.512c-0.621,0.633-1.288,0.591-2.505,0.463c-0.406-0.045-0.845-0.086-1.302-0.089   c-0.848,0.014-2.116,0.124-3.256,1.283c-1.138,1.159-1.242,2.426-1.222,3.277c0.011,0.455,0.06,0.893,0.11,1.299   c0.154,1.216,0.205,1.879-0.415,2.512c-0.622,0.631-1.286,0.593-2.5,0.457c-0.383-0.04-0.832-0.084-1.302-0.086   c-0.016,0-0.032,0-0.049,0c-0.852,0-2.089,0.144-3.204,1.278c-0.483,0.492-0.476,1.285,0.016,1.768   c0.478,0.469,1.299,0.463,1.768-0.017C8.18,92.159,8.845,92.201,10.064,92.331z"/></g><text x="0" y="115" fill="#000000" font-size="5px" font-weight="bold" font-family="'Helvetica Neue', Helvetica, Arial-Unicode, Arial, Sans-serif">Created by Oksana Latysheva</text><text x="0" y="120" fill="#000000" font-size="5px" font-weight="bold" font-family="'Helvetica Neue', Helvetica, Arial-Unicode, Arial, Sans-serif">from the Noun Project</text></svg>